<svg height="512pt" viewBox="0 0 512.21407 512" width="512pt" xmlns="http://www.w3.org/2000/svg"><path d="m370.972656 8.953125h105.929688c9.371094-.011719 18.359375 3.707031 24.984375 10.332031 6.621093 6.625 10.339843 15.613282 10.328125 24.980469v379.585937c0 48.753907-39.523438 88.277344-88.277344 88.277344h-282.480469l144.59375-105.933594h102.578125c9.738282-.027343 17.625-7.914062 17.652344-17.65625v-182.816406zm0 0" fill="#24ae5f"/><path d="m370.972656 8.953125h52.964844c29.253906 0 52.964844 23.714844 52.964844 52.96875v88.273437c0 29.253907-23.710938 52.964844-52.964844 52.964844h-52.964844c-29.253906 0-52.964844-23.710937-52.964844-52.964844v-88.273437c0-29.253906 23.710938-52.96875 52.964844-52.96875zm0 0" fill="#4fba6f"/><path d="m415.109375 106.058594c-3.570313 0-6.785156-2.152344-8.152344-5.449219-1.367187-3.300781-.613281-7.09375 1.914063-9.621094l26.480468-26.480469c3.464844-3.347656 8.96875-3.296874 12.375.105469 3.40625 3.40625 3.453126 8.910157.109376 12.375l-26.484376 26.484375c-1.65625 1.65625-3.898437 2.585938-6.242187 2.585938zm0 0" fill="#4c8056"/><path d="m432.765625 114.886719c-4.875 0-8.828125-3.953125-8.828125-8.828125v-26.484375c0-4.875 3.953125-8.828125 8.828125-8.828125s8.828125 3.953125 8.828125 8.828125v26.484375c0 4.875-3.953125 8.828125-8.828125 8.828125zm0 0" fill="#2c3e50"/><path d="m379.800781 106.058594c-2.339843 0-4.585937-.929688-6.242187-2.585938l-26.480469-26.484375c-3.347656-3.464843-3.300781-8.96875.105469-12.375 3.40625-3.402343 8.910156-3.453125 12.375-.105469l26.484375 26.480469c2.523437 2.527344 3.277343 6.320313 1.910156 9.621094-1.363281 3.296875-4.582031 5.449219-8.152344 5.449219zm0 0" fill="#4c8056"/><path d="m362.144531 114.886719c-4.875 0-8.828125-3.953125-8.828125-8.828125v-26.484375c0-4.875 3.953125-8.828125 8.828125-8.828125s8.828125 3.953125 8.828125 8.828125v26.484375c0 4.875-3.953125 8.828125-8.828125 8.828125zm0 0" fill="#2c3e50"/><path d="m415.109375 203.160156v79.449219s17.65625 26.484375 35.3125 26.484375c0 0-35.3125 35.308594-52.964844 0-17.65625 35.308594-52.96875 0-52.96875 0 17.65625 0 35.3125-26.484375 35.3125-26.484375v-79.449219zm0 0" fill="#cc4b4c"/><path d="m512.214844 406.195312c-24.378906 0-44.140625-19.761718-44.140625-44.136718 0-24.378906 19.761719-44.136719 44.140625-44.136719zm0 0" fill="#7f5b53"/><path d="m126.449219 1.1875c66.617187-8.125 130.171875 30.285156 153.953125 93.042969 4.128906 10.625 2.761718 22.605469-3.660156 32.023437-6.421876 9.421875-17.070313 15.074219-28.472657 15.113282h-1.675781c-14.574219-.21875-27.511719-9.371094-32.574219-23.039063-13.53125-34.3125-49.945312-53.75-85.980469-45.902344h1.710938c-37.578125 8.078125-62.972656 43.25-58.824219 81.460938 4.152344 38.210937 36.507813 67.109375 74.945313 66.929687 73.667968-.007812 135.742187 54.988282 144.609375 128.121094 8.871093 73.132812-38.261719 141.375-109.796875 158.972656s-144.949219-20.984375-171.023438-89.886718c-4.128906-10.625-2.761718-22.605469 3.660156-32.023438 6.421876-9.421875 17.070313-15.074219 28.472657-15.113281h1.675781c14.574219.222656 27.511719 9.371093 32.574219 23.039062 13.839843 35.203125 51.722656 54.601563 88.378906 45.253907 36.652344-9.351563 60.617187-44.523438 55.902344-82.054688-4.710938-37.535156-36.628907-65.691406-74.453125-65.6875-77.074219.109375-140.894532-59.839844-145.59375-136.769531-4.703125-76.925781 51.335937-144.203125 127.847656-153.480469" fill="#f0c419"/><path d="m388.628906 406.195312c5.761719 7.621094 8.863282 16.925782 8.828125 26.484376 0 24.375-19.761719 44.136718-44.140625 44.136718-24.375 0-44.136718-19.761718-44.136718-44.136718-.039063-9.558594 3.0625-18.863282 8.828124-26.484376zm0 0" fill="#7f5b53"/></svg>