<svg id="Capa_1" enable-background="new 0 0 512 512" height="512" viewBox="0 0 512 512" width="512" xmlns="http://www.w3.org/2000/svg"><g><g><path d="m459.265 466.286c0 25.248-20.508 45.714-45.806 45.714h-314.918c-25.298 0-45.806-20.467-45.806-45.714v-420.572c0-25.247 20.508-45.714 45.806-45.714h196.047c9.124 0 17.874 3.622 24.318 10.068l130.323 130.34c6.427 6.427 10.036 15.137 10.036 24.217z" fill="#f9f8f9"/><path d="m129.442 512h-30.905c-25.291 0-45.802-20.47-45.802-45.719v-420.562c0-25.249 20.511-45.719 45.802-45.719h30.905c-25.291 0-45.802 20.47-45.802 45.719v420.561c0 25.25 20.511 45.72 45.802 45.72z" fill="#e3e0e4"/><path d="m459.265 164.623v16.73h-119.46c-34.12 0-61.873-27.763-61.873-61.883v-119.47h16.658c9.117 0 17.874 3.626 24.312 10.065l130.328 130.339c6.429 6.428 10.035 15.143 10.035 24.219z" fill="#e3e0e4"/><path d="m456.185 150.448h-116.38c-17.101 0-30.967-13.866-30.967-30.978v-116.369c3.719 1.679 7.129 4.028 10.065 6.964l130.328 130.339c2.936 2.935 5.275 6.335 6.954 10.044z" fill="#dc4955"/><path d="m440.402 444.008h-368.804c-22.758 0-41.207-18.45-41.207-41.207v-150.407c0-22.758 18.45-41.207 41.207-41.207h368.805c22.758 0 41.207 18.45 41.207 41.207v150.406c0 22.759-18.45 41.208-41.208 41.208z" fill="#dc4955"/><path d="m97.352 444.008h-25.754c-22.757 0-41.207-18.451-41.207-41.207v-150.407c0-22.757 18.451-41.207 41.207-41.207h25.755c-22.757 0-41.207 18.451-41.207 41.207v150.406c-.001 22.757 18.449 41.208 41.206 41.208z" fill="#c42430"/><g fill="#f9f8f9"><path d="m388.072 277.037c4.267 0 7.726-3.458 7.726-7.726s-3.459-7.726-7.726-7.726h-47.247c-4.267 0-7.726 3.458-7.726 7.726v116.573c0 4.268 3.459 7.726 7.726 7.726s7.726-3.458 7.726-7.726v-51.664h35.768c4.267 0 7.726-3.458 7.726-7.726s-3.459-7.726-7.726-7.726h-35.768v-41.731z"/><path d="m258.747 262.891h-32.276c-2.052 0-4.019.816-5.468 2.268s-2.262 3.42-2.258 5.472v.101.004 111.99c0 .637.085 1.252.231 1.844v.035c.007 2.049.829 4.012 2.283 5.456 1.447 1.437 3.405 2.243 5.443 2.243h.029c.974-.004 23.943-.093 33.096-.251 15.515-.272 29.33-7.303 38.904-19.798 8.875-11.583 13.763-27.443 13.763-44.657 0-38.703-21.599-64.707-53.747-64.707zm.811 113.71c-5.75.1-17.382.173-25.155.213-.043-12.743-.122-37.877-.122-49.343 0-9.584-.044-35.933-.068-49.127h24.535c28.234 0 38.294 25.442 38.294 49.254-.001 28.467-15.415 48.617-37.484 49.003z"/></g></g><path d="m146.336 261.444h-32.967c-6.746 0-7.102 2.938-7.102 7.099v118.397c0 3.921 3.178 7.099 7.099 7.099 3.92 0 7.099-3.177 7.099-7.099v-44.368c7.698-.044 19.916-.107 25.868-.107 22.698 0 41.165-18.173 41.165-40.511-.001-22.337-18.464-40.51-41.162-40.51zm0 66.824c-5.913 0-17.952.061-25.679.106-.044-7.914-.107-20.39-.107-26.419 0-5.066-.036-18.095-.061-26.313h25.846c14.618 0 26.967 12.049 26.967 26.313.001 14.264-12.349 26.313-26.966 26.313z" fill="#f9f8f9"/></g></svg>